<svg xmlns="http://www.w3.org/2000/svg" viewBox="970 579 61.985 61.985">
  <g id="noun_7133_cc" transform="translate(970 579)">
    <g id="Group_1" data-name="Group 1">
      <path id="Path_5" data-name="Path 5" d="M61.985,30.993A30.993,30.993,0,1,0,30.993,61.985a3.375,3.375,0,1,0,0-6.75A24.242,24.242,0,1,1,55.234,30.993a23.958,23.958,0,0,1-2.528,10.785c-.02.033-.046.063-.067.1a3.954,3.954,0,0,1-7.3-2.1l-.017-21.288a3.375,3.375,0,0,0-3.375-3.373h0A3.375,3.375,0,0,0,38.6,18.072a15.971,15.971,0,1,0,.689,25.5,10.7,10.7,0,0,0,18.772,2.331,3.339,3.339,0,0,0,.475-.684A31.111,31.111,0,0,0,61.985,30.993ZM29.352,40.3a9.221,9.221,0,1,1,9.221-9.221A9.231,9.231,0,0,1,29.352,40.3Z"/>
    </g>
  </g>
</svg>
