<svg xmlns="http://www.w3.org/2000/svg" viewBox="1101.227 574 72.283 67.698">
  <defs>
    <style>
      .cls-1 {
        fill: none;
        stroke: #000;
        stroke-linecap: round;
        stroke-linejoin: round;
        stroke-miterlimit: 10;
        stroke-width: 2px;
      }
    </style>
  </defs>
  <g id="noun_39403_cc" transform="translate(902 488.717)">
    <g id="Group_11" data-name="Group 11" transform="translate(188 85)">
      <g id="Group_2" data-name="Group 2" transform="translate(20.777 6.242)">
        <path id="Path_6" data-name="Path 6" d="M60.868,33.991a1.312,1.312,0,0,1-.275-.029,1.238,1.238,0,0,1-.968-1.474c.537-2.382,1.426-8.52-1.933-14.042a16.253,16.253,0,0,0-10.3-7.3c-10.748-2.538-18.948,4.87-21.205,13.134l-.17.721a1.274,1.274,0,0,1-1.523.929,1.236,1.236,0,0,1-.953-1.483l.18-.761C26.3,14.246,35.676,5.827,47.991,8.741a18.77,18.77,0,0,1,11.888,8.445c3.822,6.281,2.832,13.166,2.229,15.834A1.263,1.263,0,0,1,60.868,33.991Z" transform="translate(-23.507 -8.155)"/>
      </g>
      <g id="Group_3" data-name="Group 3" transform="translate(35.822 59.113)">
        <path id="Path_7" data-name="Path 7" d="M44.124,86.869a1.282,1.282,0,0,1-1.027-.506,1.217,1.217,0,0,1,.274-1.729,38.515,38.515,0,0,0,6.795-6.192,1.29,1.29,0,0,1,2.08.187A22.362,22.362,0,0,0,54.7,82.09a1.213,1.213,0,0,1-.15,1.743,1.3,1.3,0,0,1-1.791-.146,24.134,24.134,0,0,1-1.81-2.368,41.181,41.181,0,0,1-6.079,5.31A1.289,1.289,0,0,1,44.124,86.869Z" transform="translate(-42.852 -78)"/>
      </g>
      <g id="Group_4" data-name="Group 4" transform="translate(26.884 44.409)">
        <path id="Path_8" data-name="Path 8" d="M32.632,80.518a1.275,1.275,0,0,1-1.136-.681,1.221,1.221,0,0,1,.563-1.661c9.867-4.839,14.2-11.931,17.417-18.874a1.282,1.282,0,0,1,1.421-.7A1.247,1.247,0,0,1,51.9,59.8c0,.086.128,8.623,5.209,14.078a1.215,1.215,0,0,1-.088,1.748,1.3,1.3,0,0,1-1.795-.086,23.142,23.142,0,0,1-5.374-11.355A36.765,36.765,0,0,1,33.2,80.386,1.3,1.3,0,0,1,32.632,80.518Z" transform="translate(-31.36 -58.576)"/>
      </g>
      <g id="Group_5" data-name="Group 5" transform="translate(11.227 0.283)">
        <path id="Path_9" data-name="Path 9" d="M63.436,43.612a1.259,1.259,0,0,1-1.263-1.11,35.964,35.964,0,0,1,.639-10.45l.026-.127c.705-3.105,1.85-11.058-2.628-18.417A22.285,22.285,0,0,0,46.1,3.462C31.582.025,20.563,9.851,17.563,20.841l-.261,1.1a22.229,22.229,0,0,1-3.763,8.617,1.291,1.291,0,0,1-1.769.3,1.216,1.216,0,0,1-.313-1.723,19.853,19.853,0,0,0,3.36-7.715l.28-1.18C18.418,8.08,30.619-2.749,46.7,1.058A24.8,24.8,0,0,1,62.4,12.246c4.94,8.118,3.694,16.82,2.929,20.186l-.02.1a33.506,33.506,0,0,0-.6,9.716A1.245,1.245,0,0,1,63.57,43.6,1.164,1.164,0,0,1,63.436,43.612Z" transform="translate(-11.227 -0.283)"/>
      </g>
      <g id="Group_6" data-name="Group 6" transform="translate(11.255 6.243)">
        <path id="Path_10" data-name="Path 10" d="M59.687,53.589a1.278,1.278,0,0,1-1.079-.581c-4.148-6.444-2.4-17.113-1.765-20.23l.032-.157c.561-2.435,1.482-8.608-1.9-14.175a16.258,16.258,0,0,0-10.3-7.3C33.921,8.6,25.722,16.016,23.465,24.279L23.3,25a28.559,28.559,0,0,1-9.938,16.4,1.3,1.3,0,0,1-1.792-.141,1.213,1.213,0,0,1,.145-1.743,26.151,26.151,0,0,0,9.1-15.034l.189-.8c2.576-9.436,11.953-17.855,24.27-14.943a18.77,18.77,0,0,1,11.888,8.445c3.851,6.329,2.825,13.255,2.206,15.938l-.027.139c-.418,2.055-2.319,12.615,1.427,18.434a1.217,1.217,0,0,1-.4,1.7A1.293,1.293,0,0,1,59.687,53.589Z" transform="translate(-11.262 -8.156)"/>
      </g>
      <g id="Group_7" data-name="Group 7" transform="translate(12.128 12.188)">
        <path id="Path_11" data-name="Path 11" d="M56.453,60.9a1.283,1.283,0,0,1-.943-.407c-7.326-7.884-5.518-21.479-4.4-26.958l.035-.178c.335-1.42,1.191-6.085-1.173-9.971a10.083,10.083,0,0,0-6.491-4.558c-7.055-1.66-12.319,3.211-13.87,8.889l-.079.338A35.124,35.124,0,0,1,14.364,50.177a1.294,1.294,0,0,1-1.763-.34,1.217,1.217,0,0,1,.349-1.716,32.649,32.649,0,0,0,14.1-20.584l.1-.418c1.88-6.882,8.3-12.738,16.937-10.7a12.572,12.572,0,0,1,8.079,5.7c2.768,4.55,1.956,9.7,1.478,11.708l-.036.183C52.788,38,50.658,51.582,57.394,58.831a1.213,1.213,0,0,1-.09,1.747A1.291,1.291,0,0,1,56.453,60.9Z" transform="translate(-12.386 -16.009)"/>
      </g>
      <g id="Group_8" data-name="Group 8" transform="translate(15.23 18.132)">
        <path id="Path_12" data-name="Path 12" d="M24.8,67.588a1.274,1.274,0,0,1-1.164-.74,1.225,1.225,0,0,1,.651-1.631C42.652,57.351,46,34.388,46.033,34.156A1.216,1.216,0,0,1,46.066,34c.009-.032.913-3.443-.459-5.689A4.034,4.034,0,0,0,42.929,26.5c-4.864-1.148-6.47,4.41-6.536,4.648C33.377,46.113,22.767,54.356,18.346,57.2a1.292,1.292,0,0,1-1.761-.349,1.217,1.217,0,0,1,.359-1.714C21.1,52.464,31.068,44.72,33.919,30.59c.789-2.9,3.786-7.869,9.609-6.492A6.519,6.519,0,0,1,47.8,27.057c1.793,2.946.908,6.859.745,7.5-.252,1.76-3.893,24.643-23.234,32.928A1.315,1.315,0,0,1,24.8,67.588Z" transform="translate(-16.375 -23.862)"/>
      </g>
      <g id="Group_9" data-name="Group 9" transform="translate(83.51 41.058)">
        <path id="Path_13" data-name="Path 13" class="cls-1" d="M104.173,54.149" transform="translate(-104.173 -54.149)"/>
      </g>
      <g id="Group_10" data-name="Group 10" transform="translate(17.234 25.241)">
        <path id="Path_14" data-name="Path 14" d="M20.222,65.1a1.273,1.273,0,0,1-1.164-.74,1.224,1.224,0,0,1,.652-1.63c16.864-7.215,20.968-28.25,21.009-28.462a1.27,1.27,0,0,1,1.477-1,1.239,1.239,0,0,1,1.023,1.437c-.17.916-4.369,22.535-22.486,30.286A1.291,1.291,0,0,1,20.222,65.1Z" transform="translate(-18.95 -33.254)"/>
      </g>
    </g>
  </g>
</svg>
