<svg xmlns="http://www.w3.org/2000/svg" xmlns:xlink="http://www.w3.org/1999/xlink" viewBox="5620 2340 18557 6000">
  <defs>
    <style>
      .cls-1 {
        clip-path: url(#clip-Artboard_3);
      }

      .cls-2 {
        fill: #fabd3a;
        stroke: #392a08;
        stroke-width: 169px;
      }

      .cls-3 {
        fill: #2f2206;
      }

      .cls-4, .cls-7 {
        fill: none;
      }

      .cls-5 {
        fill: #191102;
      }

      .cls-6, .cls-8 {
        stroke: none;
      }

      .cls-8 {
        fill: #fcd98b;
      }

      .cls-9 {
        filter: url(#Z);
      }

      .cls-10 {
        filter: url(#Path_3);
      }
    </style>
    <filter id="Path_3" x="7202.618" y="4646.702" width="1253.928" height="1408.092" filterUnits="userSpaceOnUse">
      <feOffset dy="30" input="SourceAlpha"/>
      <feGaussianBlur stdDeviation="0.5" result="blur"/>
      <feFlood flood-color="#f5d69a"/>
      <feComposite operator="in" in2="blur"/>
      <feComposite in="SourceGraphic"/>
    </filter>
    <filter id="Z" x="8881.335" y="4667.347" width="1055.359" height="1365.503" filterUnits="userSpaceOnUse">
      <feOffset dy="30" input="SourceAlpha"/>
      <feGaussianBlur stdDeviation="0.5" result="blur-2"/>
      <feFlood flood-color="#f5d69a"/>
      <feComposite operator="in" in2="blur-2"/>
      <feComposite in="SourceGraphic"/>
    </filter>
    <clipPath id="clip-Artboard_3">
      <rect x="5620" y="2340" width="18557" height="6000"/>
    </clipPath>
  </defs>
  <g id="Artboard_3" data-name="Artboard – 3" class="cls-1">
    <g id="Group_5" data-name="Group 5" transform="translate(6058 2778)">
      <g id="Ellipse_1" data-name="Ellipse 1" class="cls-2" transform="translate(62 62)">
        <circle class="cls-6" cx="2500" cy="2500" r="2500"/>
        <circle class="cls-7" cx="2500" cy="2500" r="2415.5"/>
      </g>
      <g class="cls-10" transform="matrix(1, 0, 0, 1, -6058, -2778)">
        <path id="Path_3-2" data-name="Path 3" class="cls-3" d="M1138.592-430.3c-91.392,123.76-211.344,186.592-361.76,186.592q-174.216,0-291.312-114.24c-78.064-76.16-118.048-180.88-118.048-312.256,0-129.472,39.984-232.288,118.048-306.544,79.968-76.16,171.36-114.24,276.08-114.24,146.608,0,276.08,68.544,354.144,180.88l190.4-194.208q-202.776-251.328-531.216-251.328c-199.92,0-365.568,62.832-498.848,190.4C142.8-1039.584,76.16-872.032,76.16-664.5q0,308.448,199.92,496.944,202.776,188.5,508.368,188.5,337.008,0,542.64-251.328Z" transform="translate(7127.96 6002.35)"/>
      </g>
      <g class="cls-9" transform="matrix(1, 0, 0, 1, -6058, -2778)">
        <path id="Z-2" data-name="Z" class="cls-3" d="M102.762-1073.292H770.715l-673.662,824V0H1149.412V-260.711h-694.6l673.662-824V-1334H102.762Z" transform="translate(8785.78 6001.35)"/>
      </g>
      <g id="Path_2" data-name="Path 2" class="cls-4" transform="translate(207.889 207.889)">
        <path class="cls-6" d="M2347.48,0C3643.957,0,4694.96,1051,4694.96,2347.48s-1051,2347.48-2347.48,2347.48S0,3643.957,0,2347.48,1051,0,2347.48,0Z"/>
        <path class="cls-8" d="M 2347.47998046875 4594.9599609375 C 3586.74462890625 4594.9599609375 4594.9599609375 3586.74462890625 4594.9599609375 2347.47998046875 C 4594.9599609375 1108.21533203125 3586.74462890625 99.99997711181641 2347.47998046875 99.99997711181641 C 1108.21533203125 99.99997711181641 99.99997711181641 1108.21533203125 99.99997711181641 2347.47998046875 C 99.99997711181641 3586.74462890625 1108.21533203125 4594.9599609375 2347.47998046875 4594.9599609375 M 2347.47998046875 4694.9599609375 C 1051.002685546875 4694.9599609375 -1.953124956344254e-05 3643.957275390625 -1.953124956344254e-05 2347.47998046875 C -1.953124956344254e-05 1051.002685546875 1051.002685546875 -1.953124956344254e-05 2347.47998046875 -1.953124956344254e-05 C 3643.957275390625 -1.953124956344254e-05 4694.9599609375 1051.002685546875 4694.9599609375 2347.47998046875 C 4694.9599609375 3643.957275390625 3643.957275390625 4694.9599609375 2347.47998046875 4694.9599609375 Z"/>
      </g>
    </g>
    <path id="Path_4" data-name="Path 4" class="cls-5" d="M924.508-349.4C850.3-248.906,752.9-197.888,630.768-197.888q-141.459,0-236.538-92.76c-63.386-61.84-95.852-146.87-95.852-253.544,0-105.128,32.466-188.612,95.852-248.906,64.932-61.84,139.14-92.76,224.17-92.76,119.042,0,224.17,55.656,287.556,146.87l154.6-157.692q-164.649-204.072-431.334-204.072c-162.33,0-296.832,51.018-405.052,154.6C115.95-844.116,61.84-708.068,61.84-539.554q0,250.452,162.33,403.506Q388.819,17.006,636.952,17.006q273.642,0,440.61-204.072ZM2176.768,0l-239.63-391.138c129.864-61.84,213.348-185.52,213.348-338.574,0-109.766-38.65-196.342-117.5-259.728-77.3-63.386-176.244-94.306-296.832-94.306h-448.34V0h230.354V-347.85h183.974L1915.494,0ZM1695.962-871.944c154.6,0,225.716,49.472,225.716,154.6,0,106.674-75.754,159.238-225.716,159.238h-177.79V-871.944Zm542.646-211.8L2597.28-378.77V0h227.262V-378.77l361.764-704.976H2935.854l-224.17,456.07-222.624-456.07Zm1553.73,740.534c125.226,0,227.262-34.012,306.108-103.582s117.5-160.784,117.5-273.642q0-166.968-115.95-264.366c-77.3-66.478-179.336-98.944-307.654-98.944H3353.274V0h230.354V-343.212Zm-40.2-528.732c159.238,0,234.992,46.38,234.992,156.146,0,106.674-78.846,160.784-234.992,160.784H3583.628v-316.93Zm602.94,0h310.746V0h228.808V-871.944h310.746v-211.8h-850.3Zm955.428,329.3c0,162.33,54.11,295.286,160.784,401.96C5577.968-35.558,5710.924,17.006,5867.07,17.006q236.538,0,398.868-157.692c108.22-106.674,162.33-239.63,162.33-401.96q0-241.176-162.33-398.868c-108.22-106.674-241.176-159.238-398.868-159.238-156.146,0-289.1,52.564-395.776,159.238C5364.62-836.386,5310.51-703.43,5310.51-542.646Zm236.538,0c0-95.852,29.374-176.244,88.122-242.722,60.294-66.478,139.14-98.944,238.084-98.944,94.306,0,170.06,34.012,230.354,100.49s91.214,146.87,91.214,241.176c0,97.4-29.374,177.79-88.122,244.268-57.2,66.478-136.048,98.944-233.446,98.944-100.49,0-179.336-32.466-238.084-98.944S5547.048-445.248,5547.048-542.646ZM7411.524-391.138V-262.82c-60.294,43.288-132.956,64.932-221.078,64.932-94.306,0-173.152-30.92-236.538-94.306s-95.852-148.416-95.852-252c0-105.128,32.466-188.612,95.852-248.906,64.932-61.84,139.14-92.76,224.17-92.76,119.042,0,224.17,55.656,287.556,146.87l154.6-157.692q-164.649-204.072-431.334-204.072c-162.33,0-296.832,51.018-405.052,154.6-108.22,102.036-162.33,238.084-162.33,406.6,0,162.33,54.11,296.832,162.33,400.414C6893.614-35.558,7028.116,17.006,7187.354,17.006c183.974,0,344.758-75.754,449.886-185.52V-602.94H7196.63v211.8ZM8682.336,0V-211.8H8113.408V-448.34h542.646V-657.05H8113.408V-871.944h568.928v-211.8H7883.054V0Zm590.572-1083.746L8849.3,0h238.084l85.03-213.348h418.966L9677.96,0h238.084l-423.6-1083.746ZM9517.176-417.42h-269l134.5-354.034ZM10979.692,0l-239.63-391.138c129.863-61.84,213.348-185.52,213.348-338.574,0-109.766-38.65-196.342-117.5-259.728-77.3-63.386-176.244-94.306-296.832-94.306h-448.34V0H10321.1V-347.85h183.974L10718.418,0Zm-480.806-871.944c154.6,0,225.716,49.472,225.716,154.6,0,106.674-75.754,159.238-225.716,159.238H10321.1V-871.944Zm669.418,0h542.646l-547.284,669.418V0H12018.6V-211.8h-564.29L12001.6-881.22v-202.526H11168.3Z" transform="translate(11667 5767)"/>
  </g>
</svg>
