<svg xmlns="http://www.w3.org/2000/svg" viewBox="702.621 579 56.837 62.24">
  <g id="noun_51275_cc" transform="translate(693 572.02)">
    <path id="Path_1" data-name="Path 1" d="M54.405,17.969,38.559,33.815A21.991,21.991,0,0,1,9.621,63.422,31.906,31.906,0,0,0,54.405,17.969Z" transform="translate(0 -3.219)"/>
    <path id="Path_2" data-name="Path 2" d="M46.5,43.473A18.052,18.052,0,0,1,24.571,32.627a18.054,18.054,0,1,0,28.854,8.815c-.139-.478-.3-.943-.477-1.4A18,18,0,0,1,46.5,43.473Z" transform="translate(-2.467 -7.512)"/>
    <circle id="Ellipse_1" data-name="Ellipse 1" cx="13.961" cy="13.961" r="13.961" transform="translate(30.784 10.878)"/>
    <path id="Path_3" data-name="Path 3" d="M63.206,14.16,79.028,6.98,67.992,20.542" transform="translate(-15.694)"/>
    <path id="Path_4" data-name="Path 4" d="M67.625,18.579,83.447,11.4,72.411,24.961" transform="translate(-16.989 -1.294)"/>
  </g>
</svg>
